<svg width="89" height="89" viewBox="0 0 89 89" fill="none" xmlns="http://www.w3.org/2000/svg">
<path d="M76.4239 89H12.5761C10.9739 89 9.67389 87.6999 9.67389 86.0978V2.90223C9.67389 1.30006 10.9739 0 12.5761 0H53.2065C53.9756 0 54.7143 0.306111 55.2584 0.850367L78.4758 24.0677C79.02 24.6118 79.3261 25.3504 79.3261 26.1196V86.0978C79.3261 87.6999 78.0261 89 76.4239 89Z" fill="#167EE6"/>
<path d="M55.2584 0.850367C54.7143 0.306111 53.9755 0 53.2065 0H44.5V89H76.4239C78.0261 89 79.3261 87.6999 79.3261 86.0978V26.1196C79.3261 25.3506 79.02 24.6118 78.4757 24.0677L55.2584 0.850367Z" fill="#2860CC"/>
<path d="M78.4763 24.0681L55.2584 0.850367C54.7142 0.305937 53.9756 0 53.2057 0H50.3043L50.3045 26.1196C50.3045 27.7223 51.6039 29.0218 53.2067 29.0218H79.3261V26.1196C79.3261 25.35 79.0204 24.6121 78.4763 24.0681Z" fill="#167EE6"/>
<path d="M47.4022 71.5869H24.1847C22.5825 71.5869 21.2825 70.2869 21.2825 68.6847C21.2825 67.0825 22.5825 65.7825 24.1847 65.7825H47.4021C49.0042 65.7825 50.3043 67.0825 50.3043 68.6847C50.3043 70.2871 49.0044 71.5869 47.4022 71.5869Z" fill="white"/>
<path d="M47.4022 65.7826H44.5V71.5869H47.4022C49.0044 71.5869 50.3045 70.2869 50.3045 68.6847C50.3043 67.0825 49.0044 65.7826 47.4022 65.7826Z" fill="#E6F3FF"/>
<path d="M64.8153 59.9782H24.1847C22.5825 59.9782 21.2825 58.6781 21.2825 57.0759C21.2825 55.4738 22.5825 54.1737 24.1847 54.1737H64.8153C66.4175 54.1737 67.7175 55.4738 67.7175 57.0759C67.7174 58.6783 66.4175 59.9782 64.8153 59.9782Z" fill="white"/>
<path d="M64.8153 54.1739H44.5V59.9782H64.8153C66.4175 59.9782 67.7175 58.6781 67.7175 57.0759C67.7174 55.4739 66.4175 54.1739 64.8153 54.1739Z" fill="#E6F3FF"/>
<path d="M64.8153 48.3696H24.1847C22.5825 48.3696 21.2825 47.0695 21.2825 45.4674C21.2825 43.8652 22.5825 42.5651 24.1847 42.5651H64.8153C66.4175 42.5651 67.7175 43.8652 67.7175 45.4674C67.7174 47.0695 66.4175 48.3696 64.8153 48.3696Z" fill="white"/>
<path d="M64.8153 42.5653H44.5V48.3696H64.8153C66.4175 48.3696 67.7175 47.0695 67.7175 45.4674C67.7174 43.8652 66.4175 42.5653 64.8153 42.5653Z" fill="#E6F3FF"/>
</svg>
