<svg width="89" height="89" viewBox="0 0 89 89" fill="none" xmlns="http://www.w3.org/2000/svg">
<path d="M76.4239 89H12.5761C10.9739 89 9.67389 87.6999 9.67389 86.0978V2.90223C9.67389 1.30006 10.9739 0 12.5761 0H53.2065C53.9756 0 54.7143 0.306111 55.2584 0.850367L78.4758 24.0677C79.02 24.6118 79.3261 25.3504 79.3261 26.1196V86.0978C79.3261 87.6999 78.0261 89 76.4239 89Z" fill="#7A51CC"/>
<path d="M55.2584 0.850367C54.7143 0.306111 53.9755 0 53.2065 0H44.5V89H76.4239C78.0261 89 79.3261 87.6999 79.3261 86.0978V26.1196C79.3261 25.3506 79.02 24.6118 78.4757 24.0677L55.2584 0.850367Z" fill="#5947B3"/>
<path d="M78.4763 24.0681L55.2584 0.850367C54.7142 0.305937 53.9756 0 53.2057 0H50.3043L50.3045 26.1196C50.3045 27.7223 51.6039 29.0218 53.2067 29.0218H79.3261V26.1196C79.3261 25.35 79.0204 24.6121 78.4763 24.0681Z" fill="#7A51CC"/>
<path d="M24.1847 48.3696C25.7876 48.3696 27.0869 47.0702 27.0869 45.4674C27.0869 43.8645 25.7876 42.5651 24.1847 42.5651C22.5818 42.5651 21.2825 43.8645 21.2825 45.4674C21.2825 47.0702 22.5818 48.3696 24.1847 48.3696Z" fill="white"/>
<path d="M24.1847 59.9784C25.7876 59.9784 27.0869 58.679 27.0869 57.0761C27.0869 55.4733 25.7876 54.1739 24.1847 54.1739C22.5818 54.1739 21.2825 55.4733 21.2825 57.0761C21.2825 58.679 22.5818 59.9784 24.1847 59.9784Z" fill="white"/>
<path d="M24.1847 71.5869C25.7876 71.5869 27.0869 70.2876 27.0869 68.6847C27.0869 67.0818 25.7876 65.7825 24.1847 65.7825C22.5818 65.7825 21.2825 67.0818 21.2825 68.6847C21.2825 70.2876 22.5818 71.5869 24.1847 71.5869Z" fill="white"/>
<path d="M64.8153 71.5869H35.7935C34.1913 71.5869 32.8912 70.2869 32.8912 68.6847C32.8912 67.0825 34.1913 65.7825 35.7935 65.7825H64.8153C66.4175 65.7825 67.7175 67.0825 67.7175 68.6847C67.7174 70.2871 66.4175 71.5869 64.8153 71.5869Z" fill="white"/>
<path d="M64.8153 65.7826H44.5V71.5869H64.8153C66.4175 71.5869 67.7175 70.2869 67.7175 68.6847C67.7174 67.0825 66.4175 65.7826 64.8153 65.7826Z" fill="#E6F3FF"/>
<path d="M64.8153 59.9782H35.7935C34.1913 59.9782 32.8912 58.6781 32.8912 57.0759C32.8912 55.4738 34.1913 54.1737 35.7935 54.1737H64.8153C66.4175 54.1737 67.7175 55.4738 67.7175 57.0759C67.7174 58.6783 66.4175 59.9782 64.8153 59.9782Z" fill="white"/>
<path d="M64.8153 54.1739H44.5V59.9782H64.8153C66.4175 59.9782 67.7175 58.6781 67.7175 57.0759C67.7174 55.4739 66.4175 54.1739 64.8153 54.1739Z" fill="#E6F3FF"/>
<path d="M64.8153 48.3696H35.7935C34.1913 48.3696 32.8912 47.0695 32.8912 45.4674C32.8912 43.8652 34.1913 42.5651 35.7935 42.5651H64.8153C66.4175 42.5651 67.7175 43.8652 67.7175 45.4674C67.7174 47.0695 66.4175 48.3696 64.8153 48.3696Z" fill="white"/>
<path d="M64.8153 42.5653H44.5V48.3696H64.8153C66.4175 48.3696 67.7175 47.0695 67.7175 45.4674C67.7174 43.8652 66.4175 42.5653 64.8153 42.5653Z" fill="#E6F3FF"/>
</svg>
