<svg width="87" height="89" viewBox="0 0 87 89" fill="none" xmlns="http://www.w3.org/2000/svg">
<path d="M77.5435 86.0978C77.5435 87.6999 76.2727 89 74.7065 89H12.2935C10.7273 89 9.45648 87.6999 9.45648 86.0978V2.90223C9.45648 1.30006 10.7273 0 12.2935 0H52.0109C52.7626 0 53.4848 0.306111 54.0166 0.850367L76.7122 24.0677C77.2443 24.6118 77.5435 25.3504 77.5435 26.1196V86.0978Z" fill="#12B347"/>
<path d="M77.5435 86.0978V26.1225C77.5435 25.3513 77.2434 24.6118 76.7094 24.0675L53.9313 0.846717C53.3993 0.304547 52.679 0 51.9283 0H43.5V89H74.7065C76.2733 89 77.5435 87.7006 77.5435 86.0978Z" fill="#0F993E"/>
<path d="M76.7128 24.0681L54.0167 0.850367C53.4846 0.305937 52.7626 0 52.0101 0H49.1739L49.1741 26.1196C49.1741 27.7223 50.4442 29.0218 52.0111 29.0218H77.5435V26.1196C77.5435 25.35 77.2446 24.6121 76.7128 24.0681Z" fill="#12B347"/>
<path d="M63.3587 36.7608H23.6412C22.075 36.7608 20.8042 38.0609 20.8042 39.6631V74.4892C20.8042 76.0913 22.075 77.3914 23.6412 77.3914H63.3587C64.9249 77.3914 66.1958 76.0913 66.1958 74.4892V39.6631C66.1956 38.0609 64.9249 36.7608 63.3587 36.7608ZM26.4782 54.1739H37.8261V59.9782H26.4782V54.1739ZM43.5 54.1739H60.5217V59.9782H43.5V54.1739ZM60.5217 48.3696H43.5V42.5653H60.5217V48.3696ZM37.8261 42.5653V48.3696H26.4782V42.5653H37.8261ZM26.4782 65.7826H37.8261V71.5869H26.4782V65.7826ZM43.5 71.5869V65.7826H60.5217V71.5869H43.5Z" fill="white"/>
<path d="M63.3588 36.7608H43.5V42.5651H60.5218V48.3694H43.5V54.1737H60.5218V59.978H43.5V65.7823H60.5218V71.5866H43.5V77.3909H63.3588C64.9254 77.3909 66.1958 76.0915 66.1958 74.4886V39.6631C66.1956 38.0602 64.9254 36.7608 63.3588 36.7608Z" fill="#E6F3FF"/>
</svg>
