<svg width="89" height="89" viewBox="0 0 89 89" fill="none" xmlns="http://www.w3.org/2000/svg">
<path d="M76.4239 89H12.5761C10.9739 89 9.67389 87.6999 9.67389 86.0978V2.90223C9.67389 1.30006 10.9739 0 12.5761 0H53.2065C53.9756 0 54.7143 0.306111 55.2584 0.850367L78.4758 24.0677C79.02 24.6118 79.3261 25.3504 79.3261 26.1196V86.0978C79.3261 87.6999 78.0261 89 76.4239 89Z" fill="#FFD500"/>
<path d="M55.2584 0.850367C54.7143 0.306111 53.9755 0 53.2065 0H44.5V89H76.4239C78.0261 89 79.3261 87.6999 79.3261 86.0978V26.1196C79.3261 25.3506 79.02 24.6118 78.4757 24.0677L55.2584 0.850367Z" fill="#FFAA00"/>
<path d="M78.4763 24.0681L55.2584 0.850367C54.7142 0.305937 53.9756 0 53.2057 0H50.3043L50.3045 26.1196C50.3045 27.7223 51.6039 29.0218 53.2067 29.0218H79.3261V26.1196C79.3261 25.35 79.0204 24.6121 78.4763 24.0681Z" fill="#FFD500"/>
<path d="M64.8153 77.3912H24.1847C22.5825 77.3912 21.2825 76.0912 21.2825 74.489V39.6631C21.2825 38.0609 22.5825 36.7608 24.1847 36.7608H64.8153C66.4175 36.7608 67.7175 38.0609 67.7175 39.6631V74.4892C67.7174 76.0913 66.4175 77.3912 64.8153 77.3912ZM27.0869 71.5869H61.9131V42.5653H27.0869V71.5869Z" fill="white"/>
<path d="M64.8153 36.7608H44.5V42.5651H61.9131V71.5869H44.5V77.3912H64.8153C66.4175 77.3912 67.7175 76.0912 67.7175 74.489V39.6631C67.7174 38.0609 66.4175 36.7608 64.8153 36.7608Z" fill="#E6F3FF"/>
</svg>
